<svg data-v-423bf9ae="" xmlns="http://www.w3.org/2000/svg" viewBox="0 0 407.1428168623754 60" class="font"><!----><!----><!----><g data-v-423bf9ae="" id="747fa96e-aad7-43a9-932a-614f3e9c0e4e" fill="white" transform="matrix(5.424954586220476,0,0,5.424954586220476,-3.7432148427742504,-16.708860188505035)"><path d="M6.76 9.30L7.77 9.30C7.66 7.94 6.34 6.58 4.41 6.58C2.25 6.58 0.69 8.20 0.69 10.33C0.69 12.47 2.25 14.14 4.44 14.14C6.17 14.14 7.59 13.03 7.74 11.54L6.73 11.54C6.55 12.57 5.61 13.23 4.41 13.23C2.95 13.23 1.75 12.07 1.75 10.36C1.75 8.69 2.91 7.49 4.44 7.49C5.75 7.49 6.66 8.44 6.76 9.30ZM9.06 10.33C9.06 12.45 10.64 14.14 12.87 14.14C15.08 14.14 16.66 12.45 16.66 10.33C16.66 8.25 15.08 6.58 12.87 6.58C10.64 6.58 9.06 8.25 9.06 10.33ZM10.09 10.36C10.09 8.76 11.24 7.49 12.87 7.49C14.48 7.49 15.61 8.76 15.61 10.36C15.61 11.94 14.48 13.23 12.87 13.23C11.24 13.23 10.09 11.94 10.09 10.36ZM24.32 3.08L24.32 7.66C23.67 6.94 22.79 6.58 21.71 6.58C19.67 6.58 18.03 8.20 18.03 10.33C18.03 12.52 19.66 14.14 21.73 14.14C22.92 14.14 23.81 13.69 24.46 12.87L24.65 14L25.33 14L25.33 3.08ZM21.76 13.23C20.33 13.23 19.10 11.97 19.10 10.33C19.10 8.72 20.33 7.49 21.76 7.49C22.96 7.49 23.81 8.11 24.29 9.03L24.29 11.68C23.80 12.63 22.97 13.23 21.76 13.23ZM30.87 6.58C28.83 6.58 27.24 8.19 27.24 10.33C27.24 12.50 28.78 14.14 30.88 14.14C32.55 14.14 33.81 13.06 34.05 11.76L33.05 11.76C32.84 12.66 31.99 13.23 30.88 13.23C29.44 13.23 28.38 12.15 28.27 10.63L34.09 10.63L34.19 10.54C34.37 8.41 32.89 6.58 30.87 6.58ZM28.31 9.74C28.56 8.39 29.62 7.48 30.86 7.48C32.14 7.48 33.04 8.48 33.18 9.76ZM43.61 6.58C42.42 6.58 41.50 6.99 40.87 7.78L40.87 3.08L39.87 3.08L39.87 14L40.59 14L40.80 12.87C41.43 13.69 42.32 14.14 43.60 14.14C45.58 14.14 47.21 12.46 47.21 10.33C47.21 8.23 45.57 6.58 43.61 6.58ZM43.53 13.23C42.25 13.23 41.41 12.61 40.91 11.61L40.91 9.10C41.38 8.13 42.24 7.49 43.53 7.49C44.91 7.49 46.14 8.72 46.14 10.33C46.14 11.96 44.93 13.23 43.53 13.23ZM50.18 3.08L49.13 3.08L49.13 14L50.18 14ZM55.37 6.58C53.65 6.58 52.43 7.56 52.33 9.02L53.33 9.02C53.38 8.18 54.18 7.49 55.33 7.49C56.62 7.49 57.37 8.16 57.37 9.67L57.37 9.94L55.10 9.93C53.19 9.93 52.04 10.79 52.04 12.01C52.04 13.27 53.09 14.14 54.43 14.14C55.72 14.14 56.74 13.55 57.50 12.96L57.71 14L58.39 14L58.39 9.67C58.39 7.70 57.30 6.58 55.37 6.58ZM53.07 12.00C53.07 11.19 53.79 10.79 55.12 10.79L57.37 10.79L57.37 12.11C56.62 12.70 55.66 13.22 54.64 13.22C53.79 13.22 53.07 12.78 53.07 12.00ZM66.29 9.30L67.30 9.30C67.19 7.94 65.87 6.58 63.94 6.58C61.78 6.58 60.21 8.20 60.21 10.33C60.21 12.47 61.78 14.14 63.97 14.14C65.70 14.14 67.12 13.03 67.27 11.54L66.26 11.54C66.08 12.57 65.14 13.23 63.94 13.23C62.48 13.23 61.28 12.07 61.28 10.36C61.28 8.69 62.44 7.49 63.97 7.49C65.28 7.49 66.19 8.44 66.29 9.30ZM74.49 14L75.74 14L72.45 9.83L75.43 6.72L74.17 6.72L70.15 10.93L70.15 3.08L69.12 3.08L69.12 14L70.15 14L70.15 12.24L71.75 10.56Z"></path></g><!----><!----></svg>